<?xml version="1.0" encoding="UTF-8"?>
<svg version="1.1" xmlns="http://www.w3.org/2000/svg" width="512" height="512">
<path d="M0 0 C118.8 0 237.6 0 360 0 C360 76.56 360 153.12 360 232 C241.2 232 122.4 232 0 232 C0 155.44 0 78.88 0 0 Z M12 11 C12 79.97 12 148.94 12 220 C122.88 220 233.76 220 348 220 C348 151.03 348 82.06 348 11 C237.12 11 126.24 11 12 11 Z M176 222 C176 224.31 176 226.62 176 229 C178.64 229 181.28 229 184 229 C184 226.69 184 224.38 184 222 C181.36 222 178.72 222 176 222 Z " fill="#FFFFFF" transform="translate(75,129)"/>
<path d="M0 0 C21.78 0 43.56 0 66 0 C66 2.97 66 5.94 66 9 C67.32 9 68.64 9 70 9 C70 12.3 70 15.6 70 19 C45.58 19 21.16 19 -4 19 C-4 15.7 -4 12.4 -4 9 C-2.68 9 -1.36 9 0 9 C0 6.03 0 3.06 0 0 Z " fill="#FFFFFF" transform="translate(222,366)"/>
</svg>
